<svg id="visual" viewBox="0 0 1500 350" width="1500" height="350" xmlns="http://www.w3.org/2000/svg" xmlns:xlink="http://www.w3.org/1999/xlink" version="1.1"><path d="M266 0L279.2 8.3C292.3 16.7 318.7 33.3 314 50C309.3 66.7 273.7 83.3 271.7 100C269.7 116.7 301.3 133.3 314.8 150C328.3 166.7 323.7 183.3 308.5 200C293.3 216.7 267.7 233.3 265.2 250C262.7 266.7 283.3 283.3 284.3 300C285.3 316.7 266.7 333.3 257.3 341.7L248 350L0 350L0 341.7C0 333.3 0 316.7 0 300C0 283.3 0 266.7 0 250C0 233.3 0 216.7 0 200C0 183.3 0 166.7 0 150C0 133.3 0 116.7 0 100C0 83.3 0 66.7 0 50C0 33.3 0 16.7 0 8.3L0 0Z" fill="#079e12"></path><path d="M193 0L206.8 8.3C220.7 16.7 248.3 33.3 252 50C255.7 66.7 235.3 83.3 217.3 100C199.3 116.7 183.7 133.3 192.2 150C200.7 166.7 233.3 183.3 241.7 200C250 216.7 234 233.3 234.7 250C235.3 266.7 252.7 283.3 250.5 300C248.3 316.7 226.7 333.3 215.8 341.7L205 350L0 350L0 341.7C0 333.3 0 316.7 0 300C0 283.3 0 266.7 0 250C0 233.3 0 216.7 0 200C0 183.3 0 166.7 0 150C0 133.3 0 116.7 0 100C0 83.3 0 66.7 0 50C0 33.3 0 16.7 0 8.3L0 0Z" fill="#037d0a"></path><path d="M172 0L172.7 8.3C173.3 16.7 174.7 33.3 164 50C153.3 66.7 130.7 83.3 132.7 100C134.7 116.7 161.3 133.3 178 150C194.7 166.7 201.3 183.3 194.8 200C188.3 216.7 168.7 233.3 152.7 250C136.7 266.7 124.3 283.3 118.2 300C112 316.7 112 333.3 112 341.7L112 350L0 350L0 341.7C0 333.3 0 316.7 0 300C0 283.3 0 266.7 0 250C0 233.3 0 216.7 0 200C0 183.3 0 166.7 0 150C0 133.3 0 116.7 0 100C0 83.3 0 66.7 0 50C0 33.3 0 16.7 0 8.3L0 0Z" fill="#015e05"></path><path d="M109 0L107.3 8.3C105.7 16.7 102.3 33.3 99.7 50C97 66.7 95 83.3 99 100C103 116.7 113 133.3 108.8 150C104.7 166.7 86.3 183.3 77.3 200C68.3 216.7 68.7 233.3 77 250C85.3 266.7 101.7 283.3 105.5 300C109.3 316.7 100.7 333.3 96.3 341.7L92 350L0 350L0 341.7C0 333.3 0 316.7 0 300C0 283.3 0 266.7 0 250C0 233.3 0 216.7 0 200C0 183.3 0 166.7 0 150C0 133.3 0 116.7 0 100C0 83.3 0 66.7 0 50C0 33.3 0 16.7 0 8.3L0 0Z" fill="#004000"></path></svg>