<svg id="visual" viewBox="0 0 1500 350" width="1500" height="350" xmlns="http://www.w3.org/2000/svg" xmlns:xlink="http://www.w3.org/1999/xlink" version="1.1"><path d="M413 0L443.8 8.3C474.7 16.7 536.3 33.3 559.5 50C582.7 66.7 567.3 83.3 564.3 100C561.3 116.7 570.7 133.3 564.7 150C558.7 166.7 537.3 183.3 512.7 200C488 216.7 460 233.3 472.2 250C484.3 266.7 536.7 283.3 555.8 300C575 316.7 561 333.3 554 341.7L547 350L0 350L0 341.7C0 333.3 0 316.7 0 300C0 283.3 0 266.7 0 250C0 233.3 0 216.7 0 200C0 183.3 0 166.7 0 150C0 133.3 0 116.7 0 100C0 83.3 0 66.7 0 50C0 33.3 0 16.7 0 8.3L0 0Z" fill="#079e12"></path><path d="M404 0L403.7 8.3C403.3 16.7 402.7 33.3 392.7 50C382.7 66.7 363.3 83.3 357.5 100C351.7 116.7 359.3 133.3 377.7 150C396 166.7 425 183.3 419 200C413 216.7 372 233.3 351.2 250C330.3 266.7 329.7 283.3 351.8 300C374 316.7 419 333.3 441.5 341.7L464 350L0 350L0 341.7C0 333.3 0 316.7 0 300C0 283.3 0 266.7 0 250C0 233.3 0 216.7 0 200C0 183.3 0 166.7 0 150C0 133.3 0 116.7 0 100C0 83.3 0 66.7 0 50C0 33.3 0 16.7 0 8.3L0 0Z" fill="#037d0a"></path><path d="M328 0L312 8.3C296 16.7 264 33.3 239 50C214 66.7 196 83.3 190.8 100C185.7 116.7 193.3 133.3 215.5 150C237.7 166.7 274.3 183.3 273.5 200C272.7 216.7 234.3 233.3 228.5 250C222.7 266.7 249.3 283.3 249.2 300C249 316.7 222 333.3 208.5 341.7L195 350L0 350L0 341.7C0 333.3 0 316.7 0 300C0 283.3 0 266.7 0 250C0 233.3 0 216.7 0 200C0 183.3 0 166.7 0 150C0 133.3 0 116.7 0 100C0 83.3 0 66.7 0 50C0 33.3 0 16.7 0 8.3L0 0Z" fill="#015e05"></path><path d="M161 0L157.3 8.3C153.7 16.7 146.3 33.3 136.5 50C126.7 66.7 114.3 83.3 108.3 100C102.3 116.7 102.7 133.3 109 150C115.3 166.7 127.7 183.3 124.7 200C121.7 216.7 103.3 233.3 96.2 250C89 266.7 93 283.3 104.5 300C116 316.7 135 333.3 144.5 341.7L154 350L0 350L0 341.7C0 333.3 0 316.7 0 300C0 283.3 0 266.7 0 250C0 233.3 0 216.7 0 200C0 183.3 0 166.7 0 150C0 133.3 0 116.7 0 100C0 83.3 0 66.7 0 50C0 33.3 0 16.7 0 8.3L0 0Z" fill="#004000"></path></svg>