<svg id="visual" viewBox="0 0 1500 350" width="1500" height="350" xmlns="http://www.w3.org/2000/svg" xmlns:xlink="http://www.w3.org/1999/xlink" version="1.1"><path d="M1263 350L1259.3 341.7C1255.7 333.3 1248.3 316.7 1236.2 300C1224 283.3 1207 266.7 1207.3 250C1207.7 233.3 1225.3 216.7 1233.8 200C1242.3 183.3 1241.7 166.7 1237.3 150C1233 133.3 1225 116.7 1227.7 100C1230.3 83.3 1243.7 66.7 1253.3 50C1263 33.3 1269 16.7 1272 8.3L1275 0L1500 0L1500 8.3C1500 16.7 1500 33.3 1500 50C1500 66.7 1500 83.3 1500 100C1500 116.7 1500 133.3 1500 150C1500 166.7 1500 183.3 1500 200C1500 216.7 1500 233.3 1500 250C1500 266.7 1500 283.3 1500 300C1500 316.7 1500 333.3 1500 341.7L1500 350Z" fill="#079e12"></path><path d="M1217 350L1232.8 341.7C1248.7 333.3 1280.3 316.7 1281.2 300C1282 283.3 1252 266.7 1249.3 250C1246.7 233.3 1271.3 216.7 1280.8 200C1290.3 183.3 1284.7 166.7 1290.7 150C1296.7 133.3 1314.3 116.7 1320.2 100C1326 83.3 1320 66.7 1309.5 50C1299 33.3 1284 16.7 1276.5 8.3L1269 0L1500 0L1500 8.3C1500 16.7 1500 33.3 1500 50C1500 66.7 1500 83.3 1500 100C1500 116.7 1500 133.3 1500 150C1500 166.7 1500 183.3 1500 200C1500 216.7 1500 233.3 1500 250C1500 266.7 1500 283.3 1500 300C1500 316.7 1500 333.3 1500 341.7L1500 350Z" fill="#037d0a"></path><path d="M1355 350L1356 341.7C1357 333.3 1359 316.7 1347.8 300C1336.7 283.3 1312.3 266.7 1314 250C1315.7 233.3 1343.3 216.7 1358 200C1372.7 183.3 1374.3 166.7 1369.2 150C1364 133.3 1352 116.7 1343 100C1334 83.3 1328 66.7 1320.5 50C1313 33.3 1304 16.7 1299.5 8.3L1295 0L1500 0L1500 8.3C1500 16.7 1500 33.3 1500 50C1500 66.7 1500 83.3 1500 100C1500 116.7 1500 133.3 1500 150C1500 166.7 1500 183.3 1500 200C1500 216.7 1500 233.3 1500 250C1500 266.7 1500 283.3 1500 300C1500 316.7 1500 333.3 1500 341.7L1500 350Z" fill="#015e05"></path><path d="M1436 350L1428 341.7C1420 333.3 1404 316.7 1405.7 300C1407.3 283.3 1426.7 266.7 1427.5 250C1428.3 233.3 1410.7 216.7 1397.5 200C1384.3 183.3 1375.7 166.7 1381.3 150C1387 133.3 1407 116.7 1415.7 100C1424.3 83.3 1421.7 66.7 1418.3 50C1415 33.3 1411 16.7 1409 8.3L1407 0L1500 0L1500 8.3C1500 16.7 1500 33.3 1500 50C1500 66.7 1500 83.3 1500 100C1500 116.7 1500 133.3 1500 150C1500 166.7 1500 183.3 1500 200C1500 216.7 1500 233.3 1500 250C1500 266.7 1500 283.3 1500 300C1500 316.7 1500 333.3 1500 341.7L1500 350Z" fill="#004000"></path></svg>