<svg id="visual" viewBox="0 0 900 600" width="900" height="600" xmlns="http://www.w3.org/2000/svg" xmlns:xlink="http://www.w3.org/1999/xlink" version="1.1"><rect x="0" y="0" width="900" height="600" fill="#002233"></rect><path d="M524 600L548.2 587.5C572.3 575 620.7 550 611.7 525C602.7 500 536.3 475 532.7 450C529 425 588 400 614.7 375C641.3 350 635.7 325 617.7 300C599.7 275 569.3 250 502.8 225C436.3 200 333.7 175 341.2 150C348.7 125 466.3 100 498 75C529.7 50 475.3 25 448.2 12.5L421 0L900 0L900 12.5C900 25 900 50 900 75C900 100 900 125 900 150C900 175 900 200 900 225C900 250 900 275 900 300C900 325 900 350 900 375C900 400 900 425 900 450C900 475 900 500 900 525C900 550 900 575 900 587.5L900 600Z" fill="#396D3C" stroke-linecap="round" stroke-linejoin="miter"></path></svg>